<?xml version="1.0" encoding="UTF-8"?>
<svg width="752pt" height="752pt" version="1.1" viewBox="0 0 752 752" xmlns="http://www.w3.org/2000/svg">
 <g>
  <path d="m537.49 519.97c1.8945 0 4.2617 0 6.1562-0.47266-33.625 60.617-93.297 93.297-150.12 77.195-6.1562-1.8945-11.84-4.2617-17.523-7.1055-5.6836 2.8398-11.367 5.2109-17.523 7.1055-57.305 16.574-116.97-16.574-150.12-77.195 1.8945 0 4.2617 0.47266 6.1562 0.47266 53.043 0 96.137-44.988 96.137-100.4 0-55.41-43.098-100.4-96.137-100.4-3.3164 0-6.1562 0-9.4727 0.47266 17.051-29.836 42.148-52.094 73.406-61.094 28.887-8.5234 58.25-3.7891 84.77 10.418-12.309-39.777-30.777-83.82-40.723-102.29-9.4727-17.996 42.148-22.258 49.723-3.3164 6.1562 16.102 12.312 64.879 15.156 106.55 26.992-14.68 56.828-19.418 86.191-10.891 31.258 8.9961 56.355 31.258 73.406 61.094-3.3164-0.47266-6.1562-0.47266-9.4727-0.47266-53.043 0-96.137 44.988-96.137 100.4 0 55.406 43.098 99.922 96.137 99.922z"/>
  <path d="m408.68 246.71c10.891-2.8398 33.152-10.418 44.988-28.414 12.312-17.996 10.895-41.203 9.4727-52.57-0.47266-3.7891-4.2617-6.1562-8.0508-5.2109-10.891 2.8398-33.152 10.418-44.988 28.414-11.84 17.996-10.891 41.203-8.9961 52.566 0.46875 3.793 4.2578 6.1602 7.5742 5.2148z"/>
 </g>
</svg>
