<?xml version="1.0" encoding="UTF-8"?>
<svg width="752pt" height="752pt" version="1.1" viewBox="0 0 752 752" xmlns="http://www.w3.org/2000/svg">
 <g>
  <path d="m503.87 281.29c0-8.793-3.4922-17.223-9.707-23.441-6.2188-6.2148-14.652-9.7109-23.441-9.7109h-52.094v28.414l52.094 0.003906c1.2539 0 2.4609 0.49609 3.3477 1.3867 0.88672 0.88672 1.3867 2.0898 1.3867 3.3477v52.094h28.414z"/>
  <path d="m503.87 470.72v-52.094h-28.414v52.094c0 1.2539-0.5 2.4609-1.3867 3.3477-0.88672 0.88672-2.0938 1.3867-3.3477 1.3867h-52.094v28.414h52.094c8.7891 0 17.223-3.4922 23.441-9.707 6.2148-6.2188 9.707-14.652 9.707-23.441z"/>
  <path d="m248.13 418.62v52.094c0 8.7891 3.4961 17.223 9.7109 23.441 6.2188 6.2148 14.648 9.707 23.441 9.707h52.094v-28.414h-52.094c-2.6172 0-4.7344-2.1211-4.7344-4.7344v-52.094z"/>
  <path d="m333.38 248.13h-52.094c-8.793 0-17.223 3.4961-23.441 9.7109-6.2148 6.2188-9.7109 14.648-9.7109 23.441v52.094h28.414l0.003906-52.094c0-2.6172 2.1172-4.7344 4.7344-4.7344h52.094z"/>
 </g>
</svg>
