<?xml version="1.0" encoding="UTF-8"?>
<svg width="752pt" height="752pt" version="1.1" viewBox="0 0 752 752" xmlns="http://www.w3.org/2000/svg">
 <g>
  <path d="m503.87 304.96h-52.094c-2.6133 0-4.7344-2.1211-4.7344-4.7383v-52.094h-28.414v52.094c0 8.793 3.4922 17.227 9.707 23.441 6.2188 6.2188 14.648 9.7109 23.441 9.7109h52.094z"/>
  <path d="m447.04 451.77c0-2.6133 2.1211-4.7344 4.7344-4.7344h52.094v-28.414h-52.094c-8.793 0-17.223 3.4922-23.441 9.707-6.2148 6.2188-9.707 14.648-9.707 23.441v52.094h28.414z"/>
  <path d="m333.38 503.87v-52.094c0-8.793-3.4922-17.223-9.7109-23.441-6.2148-6.2148-14.648-9.707-23.441-9.707h-52.094v28.414h52.094c1.2578 0 2.4609 0.5 3.3516 1.3867 0.88672 0.88672 1.3867 2.0938 1.3867 3.3477v52.094z"/>
  <path d="m333.38 248.13h-28.414v52.094c0 1.2578-0.5 2.4609-1.3867 3.3516-0.89062 0.88672-2.0938 1.3867-3.3516 1.3867h-52.094v28.414h52.094c8.793 0 17.227-3.4922 23.441-9.7109 6.2188-6.2148 9.7109-14.648 9.7109-23.441z"/>
 </g>
</svg>
