<?xml version="1.0" encoding="UTF-8"?>
<svg width="752pt" height="752pt" version="1.1" viewBox="0 0 752 752" xmlns="http://www.w3.org/2000/svg">
 <g>
  <path d="m535.12 216.88c-6.6289-6.6289-17.051-6.6289-23.207 0-6.6289 6.6289-6.6289 17.051 0 23.207 35.992 36.465 55.883 84.297 55.883 135.91 0 51.148-19.891 99.453-56.355 135.45-6.6289 6.6289-6.6289 17.051 0 23.207 3.3164 3.3164 7.5781 4.7344 11.84 4.7344 4.2617 0 8.5234-1.4219 11.84-4.7344 42.621-42.621 65.828-98.977 65.828-159.12 0-59.672-23.207-116.5-65.828-158.65z"/>
  <path d="m184.2 376c0-51.621 19.891-99.453 56.355-135.45 6.6289-6.6289 6.6289-17.051 0-23.207-6.6289-6.6289-17.051-6.6289-23.207 0-43.09 41.68-66.297 98.508-66.297 158.65s23.207 116.5 65.828 159.12c3.3164 3.3164 7.5781 4.7344 11.84 4.7344s8.5234-1.4219 11.84-4.7344c6.6289-6.6289 6.6289-17.051 0-23.207-36.469-36.465-56.359-84.77-56.359-135.92z"/>
  <path d="m479.24 272.76c-6.6289-6.6289-17.051-6.6289-23.207 0-6.6289 6.6289-6.6289 17.051 0 23.207 21.312 21.312 33.152 49.727 33.152 79.562s-11.84 58.25-33.152 79.562c-6.6289 6.6289-6.6289 17.051 0 23.207 3.3164 3.3164 7.5781 4.7344 11.84 4.7344s8.5234-1.4219 11.84-4.7344c27.469-27.469 42.621-63.934 42.621-102.77-0.47266-38.367-15.625-75.309-43.094-102.77z"/>
  <path d="m263.29 376c0-30.309 11.84-58.25 33.152-79.562 6.6289-6.6289 6.6289-17.051 0-23.207-6.6289-6.6289-17.051-6.6289-23.207 0-27.469 27.469-42.621 63.934-42.621 103.24 0 38.832 15.629 76.246 43.098 103.24 3.3164 3.3164 7.5781 4.7344 11.84 4.7344s8.5234-1.4219 11.84-4.7344c6.6289-6.6289 6.1562-17.051 0-23.207-22.262-21.781-34.102-50.672-34.102-80.508z"/>
  <path d="m357.06 313.96c-9.9453-6.6289-23.207 0.47266-23.207 12.312v98.977c0 11.84 13.262 18.941 23.207 12.312l74.352-49.727c8.9961-6.1562 8.9961-18.941 0-25.102z"/>
 </g>
</svg>
