<?xml version="1.0" encoding="UTF-8"?>
<svg width="752pt" height="752pt" version="1.1" viewBox="0 0 752 752" xmlns="http://www.w3.org/2000/svg">
 <path d="m450.59 363.57c-6.5391 0-11.84 5.3008-11.84 11.84v138.92l-81.824-61.746c-5.2266-3.9336-12.641-2.8984-16.586 2.3203-3.9336 5.2227-2.8984 12.645 2.3203 16.586l100.8 76.062c2.0938 1.5781 4.6094 2.3867 7.1328 2.3867 1.8008 0 3.6094-0.41016 5.2812-1.2461 4.0195-2.0039 6.5586-6.1055 6.5586-10.594v-162.69c0-6.5391-5.2969-11.84-11.84-11.84zm109.49-150.92c-4.3398-4.8867-11.824-5.332-16.711-1l-80.934 71.82-0.003906-69.57c0-4.4883-2.5391-8.5898-6.5625-10.594-4.0117-2-8.8164-1.5625-12.406 1.1445l-129.86 97.988-60.219 0.003906c-11.391 0-20.652 9.2695-20.652 20.656v105.8c0 11.387 9.2617 20.648 20.652 20.648h21.875l-82.348 73.086c-4.8906 4.3438-5.3359 11.824-1 16.711 2.3398 2.6367 5.5938 3.9844 8.8594 3.9844 2.793 0 5.6016-0.98438 7.8516-2.9844l350.45-310.98c4.8984-4.3438 5.3438-11.824 1.0039-16.715zm-121.33 91.828-136.8 121.4h-45.535v-99.75h61.16c2.5703 0 5.0781-0.83984 7.1328-2.3906l114.05-86.062z"/>
</svg>
