<?xml version="1.0" encoding="UTF-8"?>
<svg width="752pt" height="752pt" version="1.1" viewBox="0 0 752 752" xmlns="http://www.w3.org/2000/svg">
 <path d="m517.13 348.54c-5.2109 0-10.418 0.47266-15.629 1.4219-0.94531-40.73-34.098-73.406-75.301-73.406-8.9961 0-17.523 1.4219-25.574 4.2617-18.469-27.469-49.727-45.465-85.246-45.465-56.828 0-102.77 45.938-102.77 102.77 0 4.2617 0.47266 8.5234 0.94531 12.785-35.992 9.4727-62.512 42.148-62.512 80.98 0 46.41 37.414 83.824 83.824 83.824h282.25c46.41 0 83.824-37.414 83.824-83.824 0.003906-45.934-37.41-83.344-83.82-83.344zm-93.77 75.297c6.1562 6.1562 6.1562 16.574 0 22.73-3.3164 3.3164-7.1055 4.7344-11.367 4.7344-4.2617 0-8.0508-1.4219-11.367-4.7344l-24.625-24.625-24.625 24.625c-3.3164 3.3164-7.1055 4.7344-11.367 4.7344-4.2617 0-8.0508-1.4219-11.367-4.7344-6.1562-6.1562-6.1562-16.574 0-22.73l24.625-24.625-24.621-24.152c-6.1562-6.1562-6.1562-16.574 0-22.73s16.574-6.1562 22.73 0l24.625 24.625 24.625-24.625c6.1562-6.1562 16.574-6.1562 22.73 0s6.1562 16.574 0 22.73l-24.621 24.625z"/>
</svg>
