<?xml version="1.0" encoding="UTF-8"?>
<svg width="752pt" height="752pt" version="1.1" viewBox="0 0 752 752" xmlns="http://www.w3.org/2000/svg">
 <path d="m404.26 199.98c-4.0195-2-8.8242-1.5586-12.414 1.1406l-132.59 100.05h-61.539c-11.488 0-20.828 9.3516-20.828 20.848v107.97c0 11.492 9.3438 20.836 20.828 20.836h61.543l132.59 100.05c2.0938 1.5781 4.6094 2.3867 7.1328 2.3867 1.8008 0 3.6094-0.41016 5.2812-1.2461 4.0195-2.0039 6.5586-6.1055 6.5586-10.594l-0.003907-330.86c0-4.4883-2.543-8.5898-6.5586-10.594zm-17.121 317.69-116.79-88.121c-2.0547-1.5547-4.5625-2.3906-7.1328-2.3906h-62.656v-102.3h62.656c2.5703 0 5.0781-0.83984 7.1328-2.3906l116.79-88.121zm129.93-141.66c0-49.234-24.312-95.246-65.027-123.08-5.4023-3.6875-12.77-2.3047-16.457 3.0859-3.6875 5.4023-2.3047 12.77 3.0859 16.457 34.266 23.422 54.719 62.125 54.719 103.54s-20.453 80.117-54.719 103.54c-5.3984 3.6836-6.7812 11.055-3.0859 16.457 2.2891 3.3516 6.0039 5.1562 9.7812 5.1562 2.3008 0 4.6328-0.67188 6.6719-2.0703 40.719-27.832 65.031-73.844 65.031-123.08zm-37.832-181.48c-5.3984-3.6836-12.77-2.3047-16.457 3.0859-3.6875 5.4023-2.3047 12.77 3.0859 16.457 53.586 36.625 85.578 97.16 85.578 161.94s-31.992 125.32-85.574 161.94c-5.3984 3.6836-6.7812 11.055-3.0859 16.457 2.2891 3.3516 6.0039 5.1562 9.7812 5.1562 2.3008 0 4.6328-0.67188 6.6719-2.0703 60.039-41.031 95.883-108.88 95.883-181.48 0-72.602-35.844-140.45-95.883-181.48z"/>
</svg>
